# ProBuilder 5.0.7
# https://unity3d.com/unity/features/worldbuilding/probuilder
# 4/8/2024 1:19:25 AM

mtllib ./EnemyProjectileAOE.mtl
o EnemyProjectileAOE

g EnemyProjectileAOE
v 5.49 -0.04522482 0
v 5.49 -0.01067567 -4.279754
v -3.010001 0.004774169 0
v 5.49 0.004775182 0
v 5.49 0.04522603 -2.645034
v 5.49 0.04522603 2.645034
v 5.49 -0.01067568 4.279754

vt 0.1175571 0
vt 0 0
vt 0.05877853 8.500385
vt -0.04522544 0
vt -0.01067629 -4.279754
vt 0.004774556 0
vt 0.0452254 -2.645034
vt 0.0452254 2.645034
vt -0.01067631 4.279754

vn -0.005882132 -0.9999828 -1.397029E-09
vn -0.4496903 -0.01379662 -0.893078
vn -0.04731119 0.9988803 9.31506E-10
vn 1 1.192093E-07 0
vn -0.01007586 0.9998033 -0.01708897
vn -0.01007586 0.9998033 0.01708897
vn -0.4496903 -0.01379662 0.893078

usemtl M_AOE
f 3/3/3 2/2/2 1/1/1
f 1/4/4 2/5/4 4/6/4
f 3/3/3 5/2/5 2/1/2
f 2/5/4 5/7/4 4/6/4
f 3/3/3 6/2/6 5/1/5
f 5/7/4 6/8/4 4/6/4
f 3/3/3 7/2/7 6/1/6
f 6/8/4 7/9/4 4/6/4
f 3/3/3 1/2/1 7/1/7
f 7/9/4 1/4/4 4/6/4

